<?xml version="1.0" encoding="iso-8859-1"?>
<!-- Generator: Adobe Illustrator 19.0.0, SVG Export Plug-In . SVG Version: 6.00 Build 0)  -->
<svg version="1.1" id="Layer_1" xmlns="http://www.w3.org/2000/svg" xmlns:xlink="http://www.w3.org/1999/xlink" x="0px" y="0px"
	 viewBox="0 0 512 512" style="enable-background:new 0 0 512 512;" xml:space="preserve">
<g>
	<g>
		<g>
			<path d="M170.667,127.987c5.461,0,10.923-2.091,15.083-6.251l48.917-48.917v225.835c0,11.776,9.536,21.333,21.333,21.333
				s21.333-9.557,21.333-21.333V72.819l48.917,48.917c4.16,4.16,9.621,6.251,15.083,6.251c5.461,0,10.923-2.091,15.083-6.251
				c8.341-8.341,8.341-21.824,0-30.165L271.104,6.259c-1.963-1.984-4.331-3.541-6.955-4.629c-5.205-2.155-11.093-2.155-16.299,0
				c-2.624,1.088-4.992,2.645-6.955,4.629l-85.312,85.312c-8.341,8.341-8.341,21.824,0,30.165
				C159.744,125.896,165.205,127.987,170.667,127.987z"/>
			<path d="M320,170.653v128c0,35.285-28.715,64-64,64s-64-28.715-64-64v-128H0v341.333h512V170.653H320z"/>
		</g>
	</g>
</g>
<g>
</g>
<g>
</g>
<g>
</g>
<g>
</g>
<g>
</g>
<g>
</g>
<g>
</g>
<g>
</g>
<g>
</g>
<g>
</g>
<g>
</g>
<g>
</g>
<g>
</g>
<g>
</g>
<g>
</g>
</svg>
